<mxfile host="app.diagrams.net" modified="2022-05-14T19:18:44.375Z" agent="5.0 (Macintosh; Intel Mac OS X 10_15_6) AppleWebKit/537.36 (KHTML, like Gecko) Chrome/101.0.4951.54 Safari/537.36" etag="54JSQO4XzoMlWLvECwIB" version="18.0.4" type="github">
  <diagram id="i45Jnl6WqJtwTIokn0Pu" name="Page-1">
    <mxGraphModel dx="1000" dy="639" grid="1" gridSize="10" guides="1" tooltips="1" connect="1" arrows="1" fold="1" page="1" pageScale="1" pageWidth="700" pageHeight="400" math="0" shadow="0">
      <root>
        <mxCell id="0" />
        <mxCell id="1" parent="0" />
        <mxCell id="DDmqfpyBkaif6NQhIt0c-1" value="&lt;a href=&quot;https://cf.christrees.com/ns/&quot;&gt;https://cf.christrees.com/ns/&lt;/a&gt;" style="rounded=1;whiteSpace=wrap;html=1;" vertex="1" parent="1">
          <mxGeometry x="280" y="160" width="120" height="40" as="geometry" />
        </mxCell>
      </root>
    </mxGraphModel>
  </diagram>
</mxfile>
